<?xml version="1.0" standalone="no"?>
<!DOCTYPE svg PUBLIC "-//W3C//DTD SVG 20010904//EN"
 "http://www.w3.org/TR/2001/REC-SVG-20010904/DTD/svg10.dtd">
<svg version="1.0" xmlns="http://www.w3.org/2000/svg"
 width="1319.000000pt" height="1319.000000pt" viewBox="0 0 1319.000000 1319.000000"
 preserveAspectRatio="xMidYMid meet">
<metadata>
Created by potrace 1.11, written by Peter Selinger 2001-2013
</metadata>
<g transform="translate(0.000000,1319.000000) scale(0.100000,-0.100000)"
fill="#000000" stroke="none">
<path d="M6425 12646 c-104 -17 -185 -41 -256 -76 -46 -24 -4135 -2382 -4468
-2577 -219 -129 -382 -344 -468 -619 l-28 -89 0 -2680 0 -2680 22 -85 c28
-112 79 -229 136 -318 61 -94 191 -229 276 -286 74 -50 4418 -2560 4522 -2613
36 -18 110 -45 165 -60 88 -23 117 -26 264 -26 147 0 176 3 264 26 55 15 129
42 165 60 82 42 4435 2555 4511 2604 72 47 211 182 265 258 53 74 100 168 132
260 55 161 53 46 53 2847 0 1809 -3 2610 -11 2665 -32 233 -175 486 -362 644
-40 33 -133 95 -207 138 -1338 775 -4344 2508 -4387 2529 -155 79 -386 109
-588 78z m540 -2487 c956 -90 1812 -568 2450 -1369 108 -136 279 -390 269
-400 -10 -10 -1509 -879 -1529 -886 -6 -3 -31 26 -56 63 -234 362 -608 644
-1008 758 -282 81 -608 90 -891 24 -505 -116 -921 -427 -1169 -874 -168 -301
-261 -712 -231 -1020 67 -699 488 -1269 1128 -1530 234 -95 418 -130 687 -130
168 0 218 4 314 23 473 95 875 370 1166 797 26 39 49 72 50 73 4 4 1524 -874
1538 -888 5 -4 -10 -38 -33 -76 -417 -680 -1004 -1185 -1701 -1463 -289 -114
-547 -181 -884 -227 -204 -29 -695 -26 -909 4 -409 58 -759 160 -1097 318
-1073 504 -1788 1442 -1994 2615 -87 498 -79 978 25 1444 261 1171 1109 2117
2277 2540 344 125 699 195 1108 219 89 5 364 -3 490 -15z m2245 -2566 c0 -10
-9 -101 -20 -203 -11 -102 -20 -197 -20 -212 l0 -28 169 0 169 0 6 43 c3 23
12 112 21 197 8 85 18 170 21 188 l5 32 144 0 145 0 -5 -27 c-5 -25 -45 -410
-45 -426 0 -4 60 -8 133 -9 l132 -3 3 -137 3 -138 -151 0 c-82 0 -150 -3 -150
-7 0 -5 -9 -89 -20 -188 -11 -99 -20 -190 -20 -202 0 -23 2 -23 125 -23 l125
0 0 -140 0 -140 -139 0 c-136 0 -139 0 -144 -22 -3 -13 -16 -128 -28 -255
l-23 -233 -148 0 -148 0 5 38 c10 74 45 416 45 443 l0 29 -168 0 -168 0 -23
-222 c-12 -123 -24 -238 -28 -255 l-5 -33 -144 0 c-109 0 -144 3 -144 13 0 6
11 117 25 245 14 128 25 237 25 243 0 5 -55 9 -130 9 l-130 0 0 140 0 140 145
0 144 0 5 33 c10 62 36 318 36 352 l0 35 -125 0 -125 0 0 140 0 140 143 0 144
0 17 163 c9 89 19 192 23 230 l6 67 143 0 c131 0 144 -2 144 -17z"/>
<path d="M9136 6858 c-2 -7 -12 -92 -20 -188 -9 -96 -19 -185 -22 -197 l-4
-23 173 0 173 0 18 173 c9 94 20 189 23 210 l6 37 -172 0 c-129 0 -173 -3
-175 -12z"/>
</g>
</svg>
